<svg xmlns="http://www.w3.org/2000/svg" width="334" height="84.209" viewBox="0 0 334 84.209"><g id="Group_18" data-name="Group 18" transform="translate(683 -580.565)"><text id="&#x110;&#x1EA1;i_l&#xFD;_&#x1EE7;y_quy&#x1EC1;n_Apple" data-name="&#x110;&#x1EA1;i l&#xFD; &#x1EE7;y quy&#x1EC1;n Apple" transform="translate(-683 656.774)" fill="#fffdfd" font-size="34.671" font-family="Helvetica"><tspan x="0" y="0">Đại lý ủy quyền Apple</tspan></text><g id="Group_17" data-name="Group 17" transform="translate(-2.767)"><path id="Path_1" data-name="Path 1" d="M353.352,412.547l-5.607,4.028v11.269h-6.659V395.138h6.659v13.954l18.078-13.954h8.822l-16.428,13.234,16.428,19.472h-8.164l-13.129-15.3Zm-50.884-7.1v22.393h-6.062V395.138h6.011l22.489,21.919V395.138h6.061v32.706h-5.413l-23.086-22.393ZM286.986,416q0,5.179-1.9,7.768-3.5,4.652-14.626,4.656-8.064,0-12.267-2.5a7.618,7.618,0,0,1-3.308-3.978,16.777,16.777,0,0,1-.949-5.949V395.138h6.66v18.849a18.232,18.232,0,0,0,.351,4.175,4.644,4.644,0,0,0,1.3,2.251q2.561,2.442,8.521,2.448t8.514-2.448a4.674,4.674,0,0,0,1.3-2.251,18.217,18.217,0,0,0,.352-4.175V395.138h6.057V416Zm-68.714,6.473h9.77a15.756,15.756,0,0,0,6.957-1.2q5.013-2.493,5.009-9.781,0-5.28-2.7-8.1a8.7,8.7,0,0,0-3.658-2.21,19.254,19.254,0,0,0-5.608-.67h-9.77v21.967Zm-6.66-27.337h17.079a26.212,26.212,0,0,1,9.463,1.342,13.45,13.45,0,0,1,6.917,6.573,19.04,19.04,0,0,1,1.751,8.439q0,8.434-5.257,12.9a13.474,13.474,0,0,1-5.239,2.66,30.26,30.26,0,0,1-7.635.793H211.612V395.138Z" transform="translate(-723 186)" fill="#fff" fill-rule="evenodd"></path><path id="Path_2" data-name="Path 2" d="M176.138,409.19h11.821a12.081,12.081,0,0,0,4.958-.719,3.308,3.308,0,0,0,1.582-1.44,4.45,4.45,0,0,0,.573-2.2,4.361,4.361,0,0,0-.573-2.161,3.3,3.3,0,0,0-1.582-1.44,12.06,12.06,0,0,0-4.958-.72H176.138v8.682Zm0,5.37v13.284h-6.659V395.138h19.335a27.857,27.857,0,0,1,5.83.482,10.111,10.111,0,0,1,3.735,1.63,8.6,8.6,0,0,1,2.6,3.208,10.713,10.713,0,0,1,.906,4.371,9.649,9.649,0,0,1-1.8,5.8,8.1,8.1,0,0,1-4.034,3.045,22.964,22.964,0,0,1-7.232.883Zm-33.7-14.479a12.736,12.736,0,0,0-8.419,2.783,10.671,10.671,0,0,0-4.009,8.628,10.537,10.537,0,0,0,4.009,8.586,14.193,14.193,0,0,0,16.882,0,10.673,10.673,0,0,0,3.052-4.028,10.885,10.885,0,0,0,.957-4.411,10.661,10.661,0,0,0-4.009-8.775,13.318,13.318,0,0,0-8.463-2.783Zm-.051-5.516q8.808,0,13.924,4.608a16.753,16.753,0,0,1,2.8,21.288q-5.064,7.969-16.677,7.965-8.718,0-13.83-4.608a16.854,16.854,0,0,1-4.154-5.943,16.935,16.935,0,0,1,1.351-15.4q4.858-7.771,16.582-7.914Zm-33.567,18.989H88.285v14.29H81.626V395.138h6.659v13.046h20.531V395.138h6.667v32.706h-6.667v-14.29ZM73.162,399.459l-2.947,5.182a19.576,19.576,0,0,0-12.369-4.56,16.908,16.908,0,0,0-4.812.622,6.122,6.122,0,0,0-2.582,1.441,2.911,2.911,0,0,0-.975,2.112c0,1.212.872,2.046,2.607,2.488a36.677,36.677,0,0,0,5.207.72l3.957.385a34.269,34.269,0,0,1,5.582,1.006,12.955,12.955,0,0,1,3.734,1.727,8.27,8.27,0,0,1,2.582,3.12,9.269,9.269,0,0,1,.924,4.075,9.4,9.4,0,0,1-2.206,6.139,12.417,12.417,0,0,1-6.359,3.652,27.214,27.214,0,0,1-6.958.858q-6.719,0-15.78-4.608l2.248-5.567a21.711,21.711,0,0,0,6.266,3.1,23.038,23.038,0,0,0,7.411,1.515,14.57,14.57,0,0,0,5.864-1.057,6.324,6.324,0,0,0,2.248-1.6,3.12,3.12,0,0,0,.855-2.087c0-1.088-.7-1.858-2.1-2.3A27.375,27.375,0,0,0,60.3,414.9l-3.864-.385q-3.846-.379-5.4-.712a13.965,13.965,0,0,1-3.11-1.1,8.133,8.133,0,0,1-3.454-3.267,8.793,8.793,0,0,1-1.1-4.461,9.083,9.083,0,0,1,2.856-6.852q3.756-3.546,11.42-3.551a29.426,29.426,0,0,1,6.966.908,30.243,30.243,0,0,1,8.555,3.986Z" transform="translate(-723 186)" fill="#fff" fill-rule="evenodd"></path><path id="Path_1-2" data-name="Path 1" d="M353.352,412.547l-5.607,4.028v11.269h-6.659V395.138h6.659v13.954l18.078-13.954h8.822l-16.428,13.234,16.428,19.472h-8.164l-13.129-15.3Zm-50.884-7.1v22.393h-6.062V395.138h6.011l22.489,21.919V395.138h6.061v32.706h-5.413l-23.086-22.393ZM286.986,416q0,5.179-1.9,7.768-3.5,4.652-14.626,4.656-8.064,0-12.267-2.5a7.618,7.618,0,0,1-3.308-3.978,16.777,16.777,0,0,1-.949-5.949V395.138h6.66v18.849a18.232,18.232,0,0,0,.351,4.175,4.644,4.644,0,0,0,1.3,2.251q2.561,2.442,8.521,2.448t8.514-2.448a4.674,4.674,0,0,0,1.3-2.251,18.217,18.217,0,0,0,.352-4.175V395.138h6.057V416Zm-68.714,6.473h9.77a15.756,15.756,0,0,0,6.957-1.2q5.013-2.493,5.009-9.781,0-5.28-2.7-8.1a8.7,8.7,0,0,0-3.658-2.21,19.254,19.254,0,0,0-5.608-.67h-9.77v21.967Zm-6.66-27.337h17.079a26.212,26.212,0,0,1,9.463,1.342,13.45,13.45,0,0,1,6.917,6.573,19.04,19.04,0,0,1,1.751,8.439q0,8.434-5.257,12.9a13.474,13.474,0,0,1-5.239,2.66,30.26,30.26,0,0,1-7.635.793H211.612V395.138Z" transform="translate(-723 186)" fill="#fff" fill-rule="evenodd"></path><path id="Path_2-2" data-name="Path 2" d="M176.138,409.19h11.821a12.081,12.081,0,0,0,4.958-.719,3.308,3.308,0,0,0,1.582-1.44,4.45,4.45,0,0,0,.573-2.2,4.361,4.361,0,0,0-.573-2.161,3.3,3.3,0,0,0-1.582-1.44,12.06,12.06,0,0,0-4.958-.72H176.138v8.682Zm0,5.37v13.284h-6.659V395.138h19.335a27.857,27.857,0,0,1,5.83.482,10.111,10.111,0,0,1,3.735,1.63,8.6,8.6,0,0,1,2.6,3.208,10.713,10.713,0,0,1,.906,4.371,9.649,9.649,0,0,1-1.8,5.8,8.1,8.1,0,0,1-4.034,3.045,22.964,22.964,0,0,1-7.232.883Zm-33.7-14.479a12.736,12.736,0,0,0-8.419,2.783,10.671,10.671,0,0,0-4.009,8.628,10.537,10.537,0,0,0,4.009,8.586,14.193,14.193,0,0,0,16.882,0,10.673,10.673,0,0,0,3.052-4.028,10.885,10.885,0,0,0,.957-4.411,10.661,10.661,0,0,0-4.009-8.775,13.318,13.318,0,0,0-8.463-2.783Zm-.051-5.516q8.808,0,13.924,4.608a16.753,16.753,0,0,1,2.8,21.288q-5.064,7.969-16.677,7.965-8.718,0-13.83-4.608a16.854,16.854,0,0,1-4.154-5.943,16.935,16.935,0,0,1,1.351-15.4q4.858-7.771,16.582-7.914Zm-33.567,18.989H88.285v14.29H81.626V395.138h6.659v13.046h20.531V395.138h6.667v32.706h-6.667v-14.29ZM73.162,399.459l-2.947,5.182a19.576,19.576,0,0,0-12.369-4.56,16.908,16.908,0,0,0-4.812.622,6.122,6.122,0,0,0-2.582,1.441,2.911,2.911,0,0,0-.975,2.112c0,1.212.872,2.046,2.607,2.488a36.677,36.677,0,0,0,5.207.72l3.957.385a34.269,34.269,0,0,1,5.582,1.006,12.955,12.955,0,0,1,3.734,1.727,8.27,8.27,0,0,1,2.582,3.12,9.269,9.269,0,0,1,.924,4.075,9.4,9.4,0,0,1-2.206,6.139,12.417,12.417,0,0,1-6.359,3.652,27.214,27.214,0,0,1-6.958.858q-6.719,0-15.78-4.608l2.248-5.567a21.711,21.711,0,0,0,6.266,3.1,23.038,23.038,0,0,0,7.411,1.515,14.57,14.57,0,0,0,5.864-1.057,6.324,6.324,0,0,0,2.248-1.6,3.12,3.12,0,0,0,.855-2.087c0-1.088-.7-1.858-2.1-2.3A27.375,27.375,0,0,0,60.3,414.9l-3.864-.385q-3.846-.379-5.4-.712a13.965,13.965,0,0,1-3.11-1.1,8.133,8.133,0,0,1-3.454-3.267,8.793,8.793,0,0,1-1.1-4.461,9.083,9.083,0,0,1,2.856-6.852q3.756-3.546,11.42-3.551a29.426,29.426,0,0,1,6.966.908,30.243,30.243,0,0,1,8.555,3.986Z" transform="translate(-723 186)" fill="#fff" fill-rule="evenodd"></path></g></g></svg>